<?xml version="1.0" encoding="utf-8"?>
<!-- Generator: Adobe Illustrator 23.0.6, SVG Export Plug-In . SVG Version: 6.00 Build 0)  -->
<svg version="1.1" id="Capa_1" xmlns="http://www.w3.org/2000/svg" xmlns:xlink="http://www.w3.org/1999/xlink" x="0px" y="0px"
	 viewBox="0 0 512 512" style="enable-background:new 0 0 512 512;" xml:space="preserve">
<style type="text/css">
	.st0{fill:#7B52A0;}
</style>
<g>
	<g>
		<polygon class="st0" points="339.4,258.6 512,367.7 512,144.9 		"/>
	</g>
	<g>
		<polygon class="st0" points="0,144.9 0,367.7 172.6,258.6 		"/>
	</g>
	<g>
		<path class="st0" d="M480,80H32C16,80,3.4,91.9,1,107.2l255,168l255-168C508.6,91.9,496,80,480,80z"/>
	</g>
	<g>
		<path class="st0" d="M310.1,278l-45.3,29.8c-2.7,1.8-5.7,2.6-8.8,2.6s-6.1-0.9-8.8-2.6l-45.3-29.9L1,405c2.5,15.2,15.1,27,31,27
			h448c15.9,0,28.5-11.8,31-27L310.1,278z"/>
	</g>
</g>
</svg>
