<svg xmlns="http://www.w3.org/2000/svg" viewBox="0 0 252 72.35"><defs><style>.cls-1{fill:#7b52a0;}.cls-2{fill:#401a51;}.cls-3{fill:#fff;}</style></defs><title>logo-white</title><g id="white_logo" data-name="white logo"><path class="cls-1" d="M47.3,29.46h0a4.66,4.66,0,0,1-4.66,4.66h-4.2L48.55,44.24a15.76,15.76,0,0,0,10-14.66h0A15.76,15.76,0,0,0,42.76,13.83H15v11H42.64A4.67,4.67,0,0,1,47.3,29.46Z"/><polygon class="cls-2" points="43.01 57.35 58.52 57.35 15 13.83 15 29.33 43.01 57.35"/><polygon class="cls-2" points="15 47.98 24.36 57.35 39.87 57.35 15 32.48 15 47.98"/><path class="cls-3" d="M68.7,40.34V15H72c2.21,0,3.93.41,5.07,1.48s1.73,2.73,1.73,5.24a6.77,6.77,0,0,1-.49,2.93A7.22,7.22,0,0,1,76.46,27a5.16,5.16,0,0,1,2.17,3.1A9.88,9.88,0,0,1,79,33.18a8.76,8.76,0,0,1-1.21,4.89,5.39,5.39,0,0,1-4.55,2.27Zm3.72-14.89a2.88,2.88,0,0,0,1.66-.37c.62-.42,1.1-1.25,1.1-3s-.48-2.59-1.1-3a2.82,2.82,0,0,0-1.66-.38Zm0,11.21a2.61,2.61,0,0,0,1.66-.38c.62-.45,1.1-1.45,1.1-3.52s-.48-3.07-1.1-3.51a2.61,2.61,0,0,0-1.66-.38Z"/><path class="cls-3" d="M88.59,40.34,86.66,29.66h-1V40.34H81.94V15h3.72C90.1,15,92,17.53,92,22.32c0,2.51-.65,4.79-2.07,5.75l2.38,12.27ZM85.66,26.21a2.63,2.63,0,0,0,1.76-.55c.55-.48,1-1.41,1-3.2s-.45-2.76-1-3.24a2.54,2.54,0,0,0-1.76-.52Z"/><path class="cls-3" d="M104.75,35.14a6.87,6.87,0,0,1-.62,2.76,4.74,4.74,0,0,1-1.48,1.86,4.43,4.43,0,0,1-2.86.86,4.5,4.5,0,0,1-2.89-.86,4.66,4.66,0,0,1-1.45-1.86,6.87,6.87,0,0,1-.62-2.76V20.21a6.79,6.79,0,0,1,.62-2.72,4.4,4.4,0,0,1,4.34-2.76,4.62,4.62,0,0,1,2.86.87,4.76,4.76,0,0,1,1.48,1.89,6.79,6.79,0,0,1,.62,2.72ZM101,20.21a2.32,2.32,0,0,0-.48-1.58,1.09,1.09,0,0,0-.76-.28,1.15,1.15,0,0,0-1.1.93,2.52,2.52,0,0,0-.14.93V35.14a2.19,2.19,0,0,0,.52,1.59,1,1,0,0,0,.72.27,1.07,1.07,0,0,0,1.1-.93,2.28,2.28,0,0,0,.14-.93Z"/><path class="cls-3" d="M117.64,35.14A6.87,6.87,0,0,1,117,37.9a4.74,4.74,0,0,1-1.48,1.86,4.43,4.43,0,0,1-2.86.86,4.52,4.52,0,0,1-2.89-.86,4.66,4.66,0,0,1-1.45-1.86,6.87,6.87,0,0,1-.62-2.76V20.21a6.79,6.79,0,0,1,.62-2.72,4.4,4.4,0,0,1,4.34-2.76,4.62,4.62,0,0,1,2.86.87A4.76,4.76,0,0,1,117,17.49a6.79,6.79,0,0,1,.62,2.72Zm-3.72-14.93a2.32,2.32,0,0,0-.48-1.58,1.09,1.09,0,0,0-.76-.28,1.16,1.16,0,0,0-1.1.93,2.52,2.52,0,0,0-.14.93V35.14a2.19,2.19,0,0,0,.52,1.59,1,1,0,0,0,.72.27,1.07,1.07,0,0,0,1.1-.93,2.28,2.28,0,0,0,.14-.93Z"/><path class="cls-3" d="M124.57,15v8.86h.14l.17-.41L128,15h3.62l-3.41,8.34,3.86,17h-3.62l-2.58-11-.11-.51h-.1l-.21.51-.86,2.07v9h-3.72V15Z"/><path class="cls-3" d="M134.46,15H143v3.83h-4.79v6.65h3.44v4.07h-3.44v7H143v3.82h-8.52Z"/><path class="cls-3" d="M158.38,40.34l-1.93-10.68h-1V40.34h-3.72V15h3.72c4.45,0,6.35,2.52,6.35,7.31,0,2.51-.66,4.79-2.07,5.75l2.38,12.27Zm-2.93-14.13a2.6,2.6,0,0,0,1.76-.55c.55-.48,1-1.41,1-3.2s-.45-2.76-1-3.24a2.51,2.51,0,0,0-1.76-.52Z"/><path class="cls-3" d="M174.76,15V35.14a7,7,0,0,1-.62,2.76,4.77,4.77,0,0,1-1.49,1.86,4.43,4.43,0,0,1-2.86.86,4.52,4.52,0,0,1-2.89-.86,4.66,4.66,0,0,1-1.45-1.86,6.87,6.87,0,0,1-.62-2.76V15h3.72V35.14a2.19,2.19,0,0,0,.52,1.59,1,1,0,0,0,.72.27,1.09,1.09,0,0,0,1.11-.93,2.48,2.48,0,0,0,.13-.93V15Z"/><path class="cls-3" d="M178.17,15h8.51v3.83h-4.79v6.65h3.45v4.07h-3.45v7h4.79v3.82h-8.51Z"/><path class="cls-3" d="M195.61,21.8a8.32,8.32,0,0,0-.28-2.48c-.24-.69-.62-1.17-1.2-1.17-1,0-1.28,1-1.28,2.51a5.78,5.78,0,0,0,.93,2.73c.55,1,1.28,2,2,3a39.08,39.08,0,0,1,2.38,3.86,8.65,8.65,0,0,1,1.1,4,7.91,7.91,0,0,1-1.07,4.45,4.56,4.56,0,0,1-4.1,1.93c-2.38,0-3.72-.9-4.48-2.27a10.82,10.82,0,0,1-.93-5.11l3.65-.34a9.73,9.73,0,0,0,.31,2.93c.25.83.66,1.38,1.45,1.38,1.11,0,1.52-1.17,1.52-2.79a6.22,6.22,0,0,0-1-2.8c-.31-.48-.62-1-1-1.51-.73-1-1.52-2.21-2.35-3.48a14.8,14.8,0,0,1-1.82-3.93,6.73,6.73,0,0,1-.31-2,7.11,7.11,0,0,1,1.1-4,4.54,4.54,0,0,1,3.76-1.93A4.36,4.36,0,0,1,198.33,17a9.83,9.83,0,0,1,.93,4.49Z"/><path class="cls-3" d="M211.64,31.66v3.48A7,7,0,0,1,211,37.9a4.77,4.77,0,0,1-1.49,1.86,4.43,4.43,0,0,1-2.86.86,4.52,4.52,0,0,1-2.89-.86,4.66,4.66,0,0,1-1.45-1.86,6.87,6.87,0,0,1-.62-2.76V20.21a6.79,6.79,0,0,1,.62-2.72,4.4,4.4,0,0,1,4.34-2.76,4.62,4.62,0,0,1,2.86.87A4.78,4.78,0,0,1,211,17.49a7,7,0,0,1,.62,2.72V23.7h-3.48V20.21a2.17,2.17,0,0,0-.56-1.58,1.23,1.23,0,0,0-.86-.28,1.25,1.25,0,0,0-1.14.93,4.27,4.27,0,0,0-.17.93V35.14a2.4,2.4,0,0,0,.59,1.59,1,1,0,0,0,.72.27,1.2,1.2,0,0,0,1.28-.93,2.46,2.46,0,0,0,.14-.93V31.66Z"/><path class="cls-3" d="M221.18,29.31h-2.89v11h-3.72V15h3.72V25.49h2.89V15h3.73V40.34h-3.73Z"/><path class="cls-3" d="M228.35,15h8.52v3.83h-4.79v6.65h3.44v4.07h-3.44v7h4.79v3.82h-8.52Z"/><path class="cls-3" d="M70.25,56.19H68.68V45h7v1.38H70.25v3.48h5.09v1.35H70.25Z"/><path class="cls-3" d="M97.31,56.19H95.74V45h1.57Z"/><path class="cls-3" d="M122,56.19h-1.57V46.35h-3.59V45h8.76v1.38H122Z"/><path class="cls-3" d="M153.07,53.94h0V45h1.57V56.19h-2L146.76,47h0v9.16h-1.57V45h2.05Z"/><path class="cls-3" d="M177,54.79h5.86v1.4h-7.43V45h7.2v1.38H177v3.36h5.29v1.34H177Z"/><path class="cls-3" d="M208.61,47a2.58,2.58,0,0,0-.9-.75,3,3,0,0,0-2.05-.19,2,2,0,0,0-.71.34,1.75,1.75,0,0,0-.51.57,1.48,1.48,0,0,0-.2.81,1.45,1.45,0,0,0,.67,1.29,3.32,3.32,0,0,0,.73.37l.89.31c.38.11.77.24,1.16.39a4.19,4.19,0,0,1,1.06.59,2.76,2.76,0,0,1,.78.91,2.82,2.82,0,0,1,.3,1.38,3.28,3.28,0,0,1-.33,1.52,3,3,0,0,1-.86,1.06,3.53,3.53,0,0,1-1.24.62,5.09,5.09,0,0,1-1.45.21,5.36,5.36,0,0,1-2-.41,4.09,4.09,0,0,1-1.64-1.22l1.22-1a2.88,2.88,0,0,0,1.06.95,3,3,0,0,0,1.44.36,2.69,2.69,0,0,0,.79-.11,2.17,2.17,0,0,0,.72-.34,1.8,1.8,0,0,0,.53-.6,1.66,1.66,0,0,0,.21-.86,1.6,1.6,0,0,0-.21-.85,2,2,0,0,0-.58-.58,3.93,3.93,0,0,0-.85-.4c-.32-.11-.66-.23-1-.34a10.38,10.38,0,0,1-1.06-.39,3.64,3.64,0,0,1-.94-.59,2.55,2.55,0,0,1-.66-.88,3.29,3.29,0,0,1,.08-2.74,3.14,3.14,0,0,1,.89-1,3.54,3.54,0,0,1,1.24-.58,5.46,5.46,0,0,1,1.38-.19,4.86,4.86,0,0,1,1.84.35,3.79,3.79,0,0,1,1.38.94Z"/><path class="cls-3" d="M235.68,47a2.58,2.58,0,0,0-.9-.75,2.85,2.85,0,0,0-1.29-.29,2.89,2.89,0,0,0-.76.1,2,2,0,0,0-.71.34,1.75,1.75,0,0,0-.51.57,1.48,1.48,0,0,0-.2.81,1.51,1.51,0,0,0,.18.77,1.62,1.62,0,0,0,.49.52,3.32,3.32,0,0,0,.73.37l.9.31c.38.11.76.24,1.15.39a4.19,4.19,0,0,1,1.06.59,2.76,2.76,0,0,1,.78.91,2.82,2.82,0,0,1,.3,1.38,3.41,3.41,0,0,1-.32,1.52,3.12,3.12,0,0,1-.87,1.06,3.53,3.53,0,0,1-1.24.62,5,5,0,0,1-1.45.21,5.36,5.36,0,0,1-2.05-.41,4.09,4.09,0,0,1-1.64-1.22l1.22-1a3,3,0,0,0,2.5,1.31,2.65,2.65,0,0,0,.79-.11,2.17,2.17,0,0,0,.72-.34,1.94,1.94,0,0,0,.54-.6,1.76,1.76,0,0,0,.2-.86,1.6,1.6,0,0,0-.21-.85,1.89,1.89,0,0,0-.58-.58,3.72,3.72,0,0,0-.85-.4c-.32-.11-.66-.23-1-.34a10.38,10.38,0,0,1-1.06-.39,3.64,3.64,0,0,1-.94-.59,2.68,2.68,0,0,1-.66-.88,3,3,0,0,1-.25-1.3,2.87,2.87,0,0,1,.34-1.44,3,3,0,0,1,.88-1,3.62,3.62,0,0,1,1.24-.58,5.46,5.46,0,0,1,1.38-.19,4.86,4.86,0,0,1,1.84.35,3.79,3.79,0,0,1,1.38.94Z"/></g></svg>