<svg xmlns="http://www.w3.org/2000/svg" viewBox="0 0 252 72.35"><defs><style>.cls-1{fill:#7b52a0;}.cls-2{fill:#401a51;}.cls-3{font-size:34.47px;fill:#fff;font-family:LeagueGothic-Regular, League Gothic;letter-spacing:0.02em;}.cls-4{font-size:15.84px;font-family:AvenirNext-Medium, Avenir Next;font-weight:500;letter-spacing:1.14em;}</style></defs><title>logo-whiteSVG</title><g id="white_logo" data-name="white logo"><path class="cls-1" d="M47.3,29.46h0a4.66,4.66,0,0,1-4.66,4.66h-4.2L48.55,44.24a15.76,15.76,0,0,0,10-14.66h0A15.76,15.76,0,0,0,42.76,13.83H15v11H42.64A4.67,4.67,0,0,1,47.3,29.46Z"/><polygon class="cls-2" points="43.01 57.35 58.52 57.35 15 13.83 15 29.33 43.01 57.35"/><polygon class="cls-2" points="15 47.98 24.36 57.35 39.87 57.35 15 32.48 15 47.98"/><text class="cls-3" transform="translate(67.32 40.34)">BROOKE RUESCHE<tspan class="cls-4"><tspan x="0" y="15.84">FITNESS</tspan></tspan></text></g></svg>